<?xml version="1.0" encoding="utf-8"?>
<!-- Generator: Adobe Illustrator 17.0.0, SVG Export Plug-In . SVG Version: 6.00 Build 0)  -->
<!DOCTYPE svg PUBLIC "-//W3C//DTD SVG 1.1//EN" "http://www.w3.org/Graphics/SVG/1.1/DTD/svg11.dtd">
<svg version="1.1" id="圖層_1" xmlns="http://www.w3.org/2000/svg" xmlns:xlink="http://www.w3.org/1999/xlink" x="0px" y="0px"
	 width="55px" height="55px" viewBox="0 0 55 55" enable-background="new 0 0 55 55" xml:space="preserve">
<path fill="#FFFFFF" d="M35.624,20H19.375c-1.034,0-1.875,0.841-1.875,1.875v11.249c0,1.034,0.841,1.875,1.875,1.875h16.249
	c1.034,0,1.875-0.841,1.875-1.875V21.875C37.499,20.841,36.658,20,35.624,20z M35.624,21.25c0.085,0,0.165,0.017,0.24,0.049
	L27.5,28.548l-8.364-7.248c0.074-0.03,0.154-0.049,0.24-0.049L35.624,21.25z M35.624,33.75H19.375c-0.344,0-0.625-0.28-0.625-0.625
	V22.619l8.34,7.227c0.118,0.102,0.263,0.152,0.41,0.152c0.147,0,0.292-0.05,0.41-0.152l8.341-7.227v10.505
	C36.25,33.47,35.969,33.75,35.624,33.75z"/>
</svg>
