<?xml version="1.0" encoding="utf-8"?>
<!-- Generator: Adobe Illustrator 17.0.0, SVG Export Plug-In . SVG Version: 6.00 Build 0)  -->
<!DOCTYPE svg PUBLIC "-//W3C//DTD SVG 1.1//EN" "http://www.w3.org/Graphics/SVG/1.1/DTD/svg11.dtd">
<svg version="1.1" id="圖層_1" xmlns="http://www.w3.org/2000/svg" xmlns:xlink="http://www.w3.org/1999/xlink" x="0px" y="0px"
	 width="55px" height="55px" viewBox="0 0 55 55" enable-background="new 0 0 55 55" xml:space="preserve">
<g>
	<g>
		<path fill="#FFFFFF" d="M18.025,34.882l1.897,1.897c1.998,1.998,7.292-0.2,11.986-4.894s6.792-9.989,4.894-11.986l-1.897-1.897
			c-0.7-0.699-1.898-0.699-2.697,0l-2.797,2.797c-0.999,1-0.599,2.697,0.699,3.097c0.899,0.301,1.498,1.299,1.198,2.198
			c-0.499,2.097-3.197,4.695-5.194,5.194c-0.9,0.2-1.898-0.3-2.198-1.198c-0.399-1.298-2.098-1.698-3.097-0.699l-2.797,2.797
			C17.324,32.886,17.324,34.085,18.025,34.882z"/>
	</g>
</g>
</svg>
