<?xml version="1.0" encoding="utf-8"?>
<!-- Generator: Adobe Illustrator 16.0.0, SVG Export Plug-In . SVG Version: 6.00 Build 0)  -->
<!DOCTYPE svg PUBLIC "-//W3C//DTD SVG 1.1//EN" "http://www.w3.org/Graphics/SVG/1.1/DTD/svg11.dtd">
<svg version="1.1" id="圖層_1" xmlns="http://www.w3.org/2000/svg" xmlns:xlink="http://www.w3.org/1999/xlink" x="0px" y="0px"
	 width="35px" height="35px" viewBox="0 0 35 35" enable-background="new 0 0 35 35" xml:space="preserve">
<circle fill="#CB151D" cx="17.5" cy="17.5" r="16.653"/>
<g>
	<g>
		<path fill="#FFFFFF" d="M18.011,18.846l-0.891-0.687c-0.279-0.228-0.65-0.524-0.65-1.072c0-0.547,0.371-0.891,0.705-1.215
			c1.034-0.816,2.065-1.683,2.065-3.517c0-1.883-1.178-2.876-1.749-3.349h1.53L20.626,8h-4.861c-1.337,0-3.266,0.318-4.676,1.479
			c-1.071,0.919-1.586,2.181-1.586,3.321c0,1.93,1.481,3.888,4.109,3.888c0.242,0,0.52-0.019,0.782-0.047
			c-0.114,0.297-0.243,0.548-0.243,0.965c0,0.774,0.389,1.24,0.742,1.685c-1.113,0.074-3.191,0.203-4.728,1.15
			c-1.454,0.854-1.9,2.121-1.9,3.018c0,1.825,1.73,3.541,5.314,3.541c4.255,0,6.509-2.348,6.509-4.686
			C20.089,20.607,19.104,19.766,18.011,18.846z M14.767,16c-2.119,0-3.084-2.754-3.084-4.415c0-0.641,0.116-1.309,0.539-1.83
			c0.394-0.5,1.094-0.824,1.729-0.824c2.056,0,3.112,2.778,3.112,4.565c0,0.445-0.037,1.233-0.611,1.809
			C16.055,15.705,15.394,16,14.767,16z M14.8,25.966c-2.652,0-4.355-1.276-4.355-3.028c0-1.754,1.577-2.348,2.129-2.553
			c1.039-0.352,2.375-0.391,2.598-0.391c0.242,0,0.371,0,0.557,0.02c1.893,1.336,2.708,2.004,2.708,3.266
			C18.438,24.82,17.175,25.966,14.8,25.966z"/>
		<polygon fill="#FFFFFF" points="24.25,15.96 24.25,13.481 23.031,13.481 23.031,15.96 20.552,15.96 20.552,17.198 23.031,17.198 
			23.031,19.691 24.25,19.691 24.25,17.198 26.734,17.198 26.734,15.96 		"/>
	</g>
</g>
</svg>
