<?xml version="1.0" encoding="utf-8"?>
<!-- Generator: Adobe Illustrator 16.0.0, SVG Export Plug-In . SVG Version: 6.00 Build 0)  -->
<!DOCTYPE svg PUBLIC "-//W3C//DTD SVG 1.1//EN" "http://www.w3.org/Graphics/SVG/1.1/DTD/svg11.dtd">
<svg version="1.1" id="圖層_1" xmlns="http://www.w3.org/2000/svg" xmlns:xlink="http://www.w3.org/1999/xlink" x="0px" y="0px"
	 width="30px" height="30px" viewBox="0 0 30 30" enable-background="new 0 0 30 30" xml:space="preserve">
<g id="圖層_1_1_">
	<circle fill="#555" cx="15" cy="15" r="14.274"/>
	<g>
		<g>
			<path fill="#FFFFFF" d="M15.438,16.154l-0.764-0.59c-0.239-0.195-0.557-0.449-0.557-0.918c0-0.469,0.318-0.764,0.604-1.042
				c0.886-0.699,1.77-1.442,1.77-3.015c0-1.614-1.009-2.465-1.499-2.871h1.312l1.376-0.862h-4.167c-1.146,0-2.799,0.273-4.008,1.268
				c-0.918,0.788-1.359,1.869-1.359,2.847c0,1.654,1.27,3.333,3.522,3.333c0.208,0,0.446-0.017,0.67-0.041
				c-0.098,0.254-0.208,0.47-0.208,0.827c0,0.663,0.333,1.062,0.636,1.444c-0.954,0.063-2.735,0.174-4.053,0.986
				c-1.246,0.732-1.628,1.818-1.628,2.586c0,1.564,1.482,3.035,4.555,3.035c3.647,0,5.58-2.012,5.58-4.016
				C17.219,17.663,16.375,16.942,15.438,16.154z M12.657,13.714c-1.816,0-2.643-2.361-2.643-3.784c0-0.55,0.099-1.122,0.462-1.569
				c0.338-0.429,0.938-0.706,1.482-0.706c1.762,0,2.667,2.381,2.667,3.913c0,0.381-0.032,1.057-0.524,1.551
				C13.761,13.461,13.195,13.714,12.657,13.714z M12.686,22.256c-2.273,0-3.733-1.093-3.733-2.596c0-1.502,1.352-2.012,1.825-2.188
				c0.891-0.302,2.036-0.335,2.227-0.335c0.208,0,0.318,0,0.478,0.017c1.623,1.146,2.323,1.719,2.323,2.8
				C15.803,21.274,14.721,22.256,12.686,22.256z"/>
			<polygon fill="#FFFFFF" points="20.785,13.68 20.785,11.555 19.74,11.555 19.74,13.68 17.616,13.68 17.616,14.741 19.74,14.741 
				19.74,16.879 20.785,16.879 20.785,14.741 22.915,14.741 22.915,13.68 			"/>
		</g>
	</g>
</g>
</svg>
